<?xml version="1.0" encoding="UTF-8" standalone="yes"?>
<svg version="1.2" width="174" height="174" baseProfile="tiny-ps" xmlns="http://www.w3.org/2000/svg">
  <title>bimi-svg-tiny-12-ps</title>
  <path d="M0 0 C57.42 0 114.84 0 174 0 C174 57.42 174 114.84 174 174 C116.58 174 59.16 174 0 174 C0 116.58 0 59.16 0 0 Z " fill="#000000" transform="translate(0,0)"/>
  <path d="M0 0 C10.56 0 21.12 0 32 0 C32.4375 14.6875 32.4375 14.6875 32.56811523 19.2331543 C32.76133187 25.45080832 33.01473839 31.64240247 33.53125 37.84375 C34.00151257 43.51456329 34.11889911 49.12486643 34.0625 54.8125 C34.05798828 55.70775391 34.05347656 56.60300781 34.04882812 57.52539062 C34.03728677 59.68362426 34.0193655 61.84182239 34 64 C34.66 64 35.32 64 36 64 C35.98912354 63.2373584 35.97824707 62.4747168 35.96704102 61.68896484 C35.88979026 51.58456625 36.3027346 41.52903214 36.79956055 31.43896484 C36.93827164 28.60925852 37.07004626 25.77928566 37.20117188 22.94921875 C37.28865153 21.12498025 37.37652803 19.30076072 37.46484375 17.4765625 C37.50343002 16.64307281 37.5420163 15.80958313 37.58177185 14.95083618 C37.62173782 14.15575653 37.6617038 13.36067688 37.70288086 12.54150391 C37.73619003 11.85537018 37.76949921 11.16923645 37.80381775 10.46231079 C38.08260266 6.96324251 38.56461865 3.48305081 39 0 C49.23 0 59.46 0 70 0 C70 34.98 70 69.96 70 106 C62.74 106 55.48 106 48 106 C47.70754457 84.94320896 48.83316122 64.01706285 50 43 C49.34 43 48.68 43 48 43 C48.02900391 43.63897217 48.05800781 44.27794434 48.08789062 44.9362793 C48.37430102 57.29795636 46.78700908 69.53754293 45.5 81.8125 C45.25851376 84.1620477 45.01762319 86.5116567 44.77734375 88.86132812 C44.19176673 94.57494925 43.59811555 100.28767839 43 106 C37.72 106 32.44 106 27 106 C25.47450019 94.44978712 24.34150332 82.92601694 23.4375 71.3125 C23.24921089 68.90341455 23.05979631 66.49444546 22.86671448 64.08573914 C22.74809888 62.60566834 22.63215387 61.12538011 22.51939392 59.64485168 C22.23013907 56.0314108 21.80355128 52.53639786 21 49 C20.8689851 57.39951112 21.09244641 65.73723893 21.5 74.125 C22.01286915 84.76483185 22.07775292 95.34785061 22 106 C14.74 106 7.48 106 0 106 C0 71.02 0 36.04 0 0 Z " fill="#F9D621" transform="translate(52,34)"/>
  <path d="M0 0 C0.66 0 1.32 0 2 0 C2 6.27 2 12.54 2 19 C1.01 18.34 0.02 17.68 -1 17 C-1.0562279 14.03471821 -0.95683804 11.31149974 -0.6875 8.375 C-0.62626953 7.57320313 -0.56503906 6.77140625 -0.50195312 5.9453125 C-0.34851492 3.96241876 -0.17604307 1.98101481 0 0 Z " fill="#241F04" transform="translate(100,77)"/>
</svg>